# xmcd
#
# Track frame offsets:
#	150
#	13725
#	27678
#	41335
#	54525
#	69943
#	88945
#	103100
#	116845
#	129043
#	142910
#	154850
#	167958
#	183050
#	197915
#	211375
#	224425
#	239705
#
# Disc length: 3394
#
# Revision: 1
# Processed by: cddbd v1.5.1PL0 Copyright (c) Steve Scherf et al.
# Submitted via: CDex 1.50Beta7
# Normalized: r0:TDELIM( - )
#
DISCID=080d4012
DTITLE=Various Artist - Good Morning Blues
DYEAR=1900
DGENRE=Blues
TTITLE0=Robert Johnson - I Believe I'll Dust My Broom
TTITLE1=Big Bill Broozny - Keys To The Highway
TTITLE2=Tampa Red - Denver Blues
TTITLE3=Brownie McGhee - Born For Bad Luck
TTITLE4=Blind Willie Johnson - Dark Was The Night, Cold Was The Ground
TTITLE5=Leadbelly - C.C. Rider
TTITLE6=Blind Willie McTell - Georgia Rag
TTITLE7=Bukka White - Black Train Blues
TTITLE8=Sleepy John Estes - Little Laura Blues
TTITLE9=Blind Boy Fuller - My Brownskin Sugar Plum
TTITLE10=Sonny Boy Williamson - Got The Bottle Up And Gone
TTITLE11=Big Joe Turner - Sun Risin' Blues
TTITLE12=Barbecue Bob - Motherless Chile Blues
TTITLE13=Arthur 'Big Boy' Crudup - Death Valley Blues
TTITLE14=Leroy Carr - Mean Mistreater Mama
TTITLE15=Champion Jack Dupree - Warehouseman Blues
TTITLE16=Roosevelt Sykes - Jivin' The Jive
TTITLE17=Lonnie Johnson - Four Hands Are Better That Two
EXTD=
EXTT0=
EXTT1=
EXTT2=
EXTT3=
EXTT4=
EXTT5=
EXTT6=
EXTT7=
EXTT8=
EXTT9=
EXTT10=
EXTT11=
EXTT12=
EXTT13=
EXTT14=
EXTT15=
EXTT16=
EXTT17=
PLAYORDER=
